<svg width="1920" height="290" viewBox="0 0 1920 290" fill="none" xmlns="http://www.w3.org/2000/svg">
<path d="M2764.65 120.965L2732.87 154.597C2701.08 187.725 2637.52 255.745 2573.64 241.889C2509.76 228.033 2445.58 134.821 2381.75 134.443C2317.93 134.821 2254.46 228.033 2190.64 228.411C2126.81 228.033 2062.63 134.821 1998.7 107.486C1934.77 80.6563 1871.1 120.965 1807.41 154.597C1743.71 187.725 1679.99 215.437 1616.11 201.581C1552.24 187.725 1488.21 134.821 1424.28 107.486C1360.35 80.6563 1296.53 80.6563 1232.73 87.3323C1168.93 94.5123 1105.15 107.109 1041.41 127.641C977.659 147.417 913.94 175.129 850.243 208.257C786.547 241.889 722.877 282.198 658.975 262.044C595.073 241.889 530.939 161.273 498.872 120.965L466.805 80.6563C466.805 80.6563 418.124 -2.07847 466.495 0.0397412C514.866 2.15798 498.407 0.0397412 498.407 0.0397412C530.32 0.0397412 594.145 0.0397412 657.969 0.0397412C721.794 0.0397412 785.619 0.0397412 849.443 0.0397412C913.268 0.0397412 977.093 0.0397412 1040.92 0.0397412C1104.74 0.0397412 1168.57 0.0397412 1232.39 0.0397412C1296.22 0.0397412 1360.04 0.0397412 1423.87 0.0397412C1487.69 0.0397412 1551.52 0.0397412 1615.34 0.0397412C1679.17 0.0397412 1742.99 0.0397412 1806.81 0.0397412C1870.64 0.0397412 1934.46 0.0397412 1998.29 0.0397412C2062.11 0.0397412 2125.94 0.0397412 2189.76 0.0397412C2253.59 0.0397412 2317.41 0.0397412 2381.24 0.0397412C2445.06 0.0397412 2508.89 0.0397412 2572.71 0.0397412C2636.54 0.0397412 2700.36 0.0397412 2732.27 0.0397412H2764.19L2764.65 120.965Z" fill="#9897D0" fill-opacity="0.6"/>
<path d="M3682.97 142.965L3631.67 176.597C3580.37 209.725 3477.77 277.745 3374.86 263.889C3271.95 250.033 3168.74 156.821 3065.88 156.443C2963.02 156.821 2860.52 250.033 2757.67 250.411C2654.81 250.033 2551.59 156.821 2448.63 129.486C2345.67 102.656 2242.97 142.965 2140.24 176.597C2037.51 209.725 1934.76 237.437 1831.85 223.581C1728.94 209.725 1625.88 156.821 1522.91 129.486C1419.95 102.656 1317.1 102.656 1214.26 109.332C1111.43 116.512 1008.63 129.109 905.846 149.641C803.065 169.417 700.314 197.129 597.583 230.257C494.855 263.889 392.153 304.198 289.218 284.044C186.283 263.889 83.1162 183.273 31.5327 142.965L-20.0507 102.656C-20.0507 102.656 -98.3079 19.9215 -20.3601 22.0397C57.588 24.158 31.0686 22.0397 31.0686 22.0397C82.4973 22.0397 185.355 22.0397 288.212 22.0397C391.07 22.0397 493.927 22.0397 596.784 22.0397C699.642 22.0397 802.499 22.0397 905.357 22.0397C1008.21 22.0397 1111.07 22.0397 1213.93 22.0397C1316.79 22.0397 1419.64 22.0397 1522.5 22.0397C1625.36 22.0397 1728.22 22.0397 1831.07 22.0397C1933.93 22.0397 2036.79 22.0397 2139.65 22.0397C2242.5 22.0397 2345.36 22.0397 2448.22 22.0397C2551.08 22.0397 2653.93 22.0397 2756.79 22.0397C2859.65 22.0397 2962.5 22.0397 3065.36 22.0397C3168.22 22.0397 3271.08 22.0397 3373.93 22.0397C3476.79 22.0397 3579.65 22.0397 3631.08 22.0397H3682.51L3682.97 142.965Z" fill="#383769"/>
</svg>
