<svg width="74" height="75" viewBox="0 0 74 75" fill="none" xmlns="http://www.w3.org/2000/svg">
<g clip-path="url(#clip0)">
<path d="M57.2921 13.417C47.8441 13.417 40.384 21.1808 40.384 30.7565C40.384 40.3322 48.1437 48.0961 57.5917 48.0961C57.6862 48.0961 57.8288 48.0831 57.9233 48.0815C54.1877 51.0964 49.4957 52.9131 44.36 52.9131C41.9972 52.9131 40.0957 54.8549 40.0957 57.248C40.0957 59.6412 41.6159 61.5829 43.9787 61.5829C60.7491 61.5813 74 47.7535 74 30.7565C74 30.7533 74 30.75 74 30.7452C74 21.1743 66.737 13.417 57.2921 13.417Z" fill="white"/>
<path d="M17.2205 13.417C7.77244 13.417 0.299556 21.1808 0.299556 30.7565C0.299556 40.3322 8.05278 48.0961 17.5024 48.0961C17.5969 48.0961 17.7363 48.0831 17.8308 48.0815C14.0952 51.0964 9.40158 52.9131 4.26587 52.9131C1.90306 52.9131 0 54.8549 0 57.248C0 59.6412 1.54424 61.5829 3.90705 61.5829C20.6774 61.5813 33.9524 47.7535 33.9524 30.7565C33.9524 30.7533 33.9524 30.75 33.9524 30.7452C33.9524 21.1743 26.6653 13.417 17.2205 13.417Z" fill="white"/>
</g>
<defs>
<clipPath id="clip0">
<rect width="74" height="75" fill="white"/>
</clipPath>
</defs>
</svg>
