<svg width="211" height="125" viewBox="0 0 211 125" fill="none" xmlns="http://www.w3.org/2000/svg">
<path d="M51.9246 65.7623C40.3776 54.7481 27.1261 48.4903 14 41C26.6248 65.1697 34.4036 74.2324 50.2953 84.8674C54.6484 90.3113 60.6225 92.8713 67.6325 93.7088C83.2653 95.5814 98.639 99.7216 112.81 97.3355C96.1742 89.9953 75.9043 88.8022 56.4782 84.3222C56.3028 77.9697 59.5864 73.0709 51.9246 65.7623Z" fill="#A6C8E8"/>
<path d="M179.894 68.7091C178.7 60.8712 172.759 66.2677 169.099 65.2484C164.328 64.4899 159.532 63.763 152.832 62.7358C159.482 70.803 162.816 78.9333 173.67 80.3713C178.315 80.9797 186.879 82.552 185.793 87.1505C183.019 98.9628 192.878 94.1273 197.106 96.9243C198.217 69.8469 201.702 71.917 179.894 68.7091Z" fill="#A6C8E8"/>
<path d="M110.437 64.8298C107.153 78.3171 107.17 78.3408 118.09 80.8771C118.666 81.0193 118.892 82.2835 119.452 82.884C121.031 84.4722 123.396 85.3097 125.2 84.2193C127.949 82.5206 126.186 79.8895 125.301 77.8352C124.248 75.3305 120.187 73.4263 122.953 70.2421C124.081 68.9463 128.994 71.0322 127.715 67.05C126.629 63.6525 122.702 64.5849 119.92 65.0826C117.681 65.4935 115.441 67.5557 114.589 63.6367C120.179 59.7809 129.244 66.5286 134.282 56.7627C125.869 60.2945 117.714 55.3484 110.604 60.2392C110.57 61.7799 110.787 63.3602 110.437 64.8298Z" fill="#A6C8E8"/>
<path d="M110.587 60.0576C110.336 60.0023 110.152 60.0418 109.927 60.0023C108.44 58.4695 106.919 57.0393 105.958 55.1905C105.866 55.0561 105.774 54.9376 105.682 54.7717C105.398 54.0843 105.164 53.3337 105.056 52.512C104.705 49.5964 105.54 45.9145 100.285 45.5036C95.7229 45.148 94.4362 48.0162 93.208 50.9554C89.3645 60.0892 80.4327 58.6749 73.9657 57.1658C66.0199 55.3011 67.0225 58.4141 68.3009 62.8072C69.1782 65.8334 70.4649 68.8753 72.2947 71.4669C77.2828 78.5859 86.2898 76.4447 93.3416 78.5859C100.068 80.6244 97.8786 72.4941 100.577 69.7603C102.934 67.4057 102.624 62.3805 105.624 60.5554C106.618 59.947 107.98 59.7099 109.952 60.0339C110.077 60.1524 110.194 60.2709 110.328 60.4131C110.428 60.342 110.503 60.3262 110.604 60.2472C110.587 60.184 110.587 60.1208 110.587 60.0576Z" fill="#A6C8E8"/>
<path d="M143.649 69.2147C146.531 64.2686 151.536 59.6701 146.423 52.8672C139.663 57.758 140.666 63.3284 143.649 69.2147Z" fill="#A6C8E8"/>
</svg>
