<svg width="125" height="125" viewBox="0 0 125 125" fill="none" xmlns="http://www.w3.org/2000/svg">
<g clip-path="url(#clip0)">
<path d="M62.4998 59.7829C73.0053 59.7829 81.5216 51.2665 81.5216 40.7611C81.5216 30.2556 73.0053 21.7393 62.4998 21.7393C51.9944 21.7393 43.478 30.2556 43.478 40.7611C43.478 51.2665 51.9944 59.7829 62.4998 59.7829Z" fill="#A6C8E8"/>
<path d="M100.544 70.6523C108.047 70.6523 114.13 64.5692 114.13 57.0654C114.13 49.5616 108.047 43.4785 100.544 43.4785C93.0397 43.4785 86.9567 49.5616 86.9567 57.0654C86.9567 64.5692 93.0397 70.6523 100.544 70.6523Z" fill="#A6C8E8"/>
<path d="M24.8425 70.6523C32.3463 70.6523 38.4293 64.5692 38.4293 57.0654C38.4293 49.5616 32.3463 43.4785 24.8425 43.4785C17.3387 43.4785 11.2556 49.5616 11.2556 57.0654C11.2556 64.5692 17.3387 70.6523 24.8425 70.6523Z" fill="#A6C8E8"/>
<path d="M62.4998 65.2173C43.0215 65.2173 27.1737 81.0651 27.1737 100.543C27.1737 102.043 28.3912 103.261 29.8912 103.261H95.1085C96.6085 103.261 97.826 102.043 97.826 100.543C97.826 81.0651 81.9782 65.2173 62.4998 65.2173Z" fill="#A6C8E8"/>
<path d="M29.5271 76.6739C27.8641 76.3205 26.1738 76.0869 24.4565 76.0869C10.9728 76.0869 0 87.0597 0 100.543C0 102.043 1.21748 103.261 2.71747 103.261H22.2391C21.9347 102.408 21.739 101.5 21.739 100.543C21.739 91.6249 24.6522 83.3913 29.5271 76.6739Z" fill="#A6C8E8"/>
<path d="M100.543 76.0869C98.8262 76.0869 97.1359 76.3205 95.4728 76.6739C100.348 83.3913 103.261 91.6249 103.261 100.543C103.261 101.5 103.065 102.407 102.761 103.261H122.283C123.783 103.261 125 102.043 125 100.543C125 87.0597 114.027 76.0869 100.543 76.0869Z" fill="#A6C8E8"/>
</g>
<defs>
<clipPath id="clip0">
<rect width="125" height="125" fill="white"/>
</clipPath>
</defs>
</svg>
