<svg width="125" height="125" viewBox="0 0 125 125" fill="none" xmlns="http://www.w3.org/2000/svg">
<path d="M25.764 63.915C17.9195 56.4325 8.9172 52.1813 0 47.0928C8.57664 63.5124 13.8611 69.6691 24.6571 76.8939C27.6144 80.5922 31.6728 82.3314 36.4351 82.9003C47.0551 84.1725 57.4992 86.9851 67.1259 85.3641C55.8248 80.3775 42.0545 79.567 28.8575 76.5236C28.7383 72.208 30.969 68.88 25.764 63.915Z" fill="#A6C8E8"/>
<path d="M112.7 65.9173C111.888 60.5926 107.853 64.2587 105.366 63.5663C102.125 63.051 98.8672 62.5572 94.3149 61.8594C98.8331 67.3397 101.098 72.8631 108.471 73.84C111.627 74.2533 117.445 75.3214 116.707 78.4454C114.823 86.47 121.521 83.185 124.393 85.0852C125.148 66.6903 127.515 68.0966 112.7 65.9173Z" fill="#A6C8E8"/>
<path d="M65.5138 63.2816C63.2831 72.4442 63.2944 72.4603 70.7131 74.1833C71.1048 74.2799 71.258 75.1388 71.6383 75.5467C72.7111 76.6256 74.3175 77.1946 75.5435 76.4538C77.411 75.2998 76.2133 73.5124 75.6116 72.1168C74.8964 70.4152 72.1378 69.1216 74.0166 66.9585C74.7829 66.0782 78.1205 67.4952 77.252 64.7899C76.5141 62.4819 73.8463 63.1152 71.9562 63.4534C70.435 63.7325 68.9138 65.1335 68.3348 62.4711C72.1322 59.8517 78.2908 64.4357 81.7135 57.8013C75.9976 60.2006 70.4577 56.8405 65.6273 60.163C65.6046 61.2097 65.7522 62.2833 65.5138 63.2816Z" fill="#A6C8E8"/>
<path d="M65.6158 60.0399C65.4455 60.0023 65.3206 60.0292 65.1673 60.0023C64.157 58.961 63.1239 57.9894 62.4712 56.7334C62.4087 56.6422 62.3463 56.5616 62.2839 56.4489C62.0909 55.9819 61.9319 55.472 61.8582 54.9138C61.6198 52.9331 62.1874 50.4318 58.6171 50.1527C55.5179 49.9111 54.6438 51.8596 53.8094 53.8564C51.1984 60.0614 45.1306 59.1005 40.7373 58.0753C35.3393 56.8086 36.0204 58.9234 36.8888 61.9078C37.4848 63.9636 38.359 66.0302 39.602 67.7908C42.9907 72.627 49.1096 71.1724 53.9002 72.627C58.4695 74.0119 56.9824 68.4886 58.8157 66.6314C60.4164 65.0318 60.2064 61.618 62.2441 60.378C62.9196 59.9647 63.8448 59.8037 65.1844 60.0238C65.2695 60.1043 65.349 60.1848 65.4398 60.2814C65.5079 60.2331 65.559 60.2224 65.6271 60.1687C65.6158 60.1258 65.6158 60.0828 65.6158 60.0399Z" fill="#A6C8E8"/>
<path d="M88.0767 66.2604C90.0349 62.9003 93.4349 59.7763 89.9611 55.1548C85.3691 58.4774 86.0503 62.2615 88.0767 66.2604Z" fill="#A6C8E8"/>
</svg>
