<svg width="125" height="125" viewBox="0 0 125 125" fill="none" xmlns="http://www.w3.org/2000/svg">
<path d="M33.9322 22.2168H61.2807C65.1971 13.439 72.0841 6.34106 72.1417 6.22559C73.2403 5.2002 73.5332 3.66211 72.9473 2.27051C72.3616 0.878906 71.0433 0 69.5785 0C62.9869 0 59.3982 2.34375 56.5418 4.24805C53.9784 6.00586 52.001 7.32422 47.6066 7.32422C43.2122 7.32422 41.2347 6.00586 38.6713 4.24805C35.815 2.34375 32.2262 0 25.6346 0C24.1698 0 22.8515 0.878906 22.2656 2.27051C21.6797 3.66211 21.9726 5.2002 23.0712 6.22559C23.1291 6.34106 30.0158 13.439 33.9322 22.2168Z" fill="#A6C8E8"/>
<path d="M73.4863 114.014V121.338C73.4863 123.36 75.126 125 77.1484 125H121.338C123.36 125 125 123.36 125 121.338V114.014C125 111.991 123.36 110.352 121.338 110.352H77.1484C75.126 110.352 73.4863 111.991 73.4863 114.014Z" fill="#A6C8E8"/>
<path d="M125 99.3652V92.041C125 90.0186 123.36 88.3789 121.338 88.3789H77.1484C75.126 88.3789 73.4863 90.0186 73.4863 92.041V99.3652C73.4863 101.388 75.126 103.027 77.1484 103.027H121.338C123.36 103.027 125 101.388 125 99.3652Z" fill="#A6C8E8"/>
<path d="M73.0225 59.2275C65.8447 52.1965 59.9854 46.2397 58.8135 36.865H62.2559C64.3066 36.865 65.918 35.2537 65.918 33.203C65.918 31.1523 64.3066 29.541 62.2559 29.541H32.959C30.9082 29.541 29.2969 31.1523 29.2969 33.203C29.2969 35.2537 30.9082 36.865 32.959 36.865H36.4014C35.2295 46.2397 29.3701 52.1965 22.1924 59.2275C11.792 69.4078 0 80.9797 0 107.419C0.146484 117.087 8.42285 124.997 18.3105 124.997H66.5918C66.1816 123.847 65.918 122.624 65.918 121.335V92.0389C65.918 85.982 70.8472 81.0529 76.9043 81.0529H90.022C85.5908 71.5562 79.0186 65.1111 73.0225 59.2275ZM47.6074 81.0529C53.6655 81.0529 58.5938 85.981 58.5938 92.0389C58.5938 96.8068 55.523 100.834 51.2695 102.35V106.687C51.2695 108.711 49.6316 110.349 47.6074 110.349C45.5833 110.349 43.9453 108.711 43.9453 106.687V102.35C39.6919 100.834 36.6211 96.8068 36.6211 92.0389C36.6211 90.0148 38.259 88.3769 40.2832 88.3769C42.3074 88.3769 43.9453 90.0148 43.9453 92.0389C43.9453 94.0593 45.5869 95.7009 47.6074 95.7009C49.6279 95.7009 51.2695 94.0593 51.2695 92.0389C51.2695 90.0184 49.6279 88.3769 47.6074 88.3769C41.5493 88.3769 36.6211 83.4488 36.6211 77.3909C36.6211 72.623 39.6919 68.5963 43.9453 67.0795V62.743C43.9453 60.7189 45.5833 59.081 47.6074 59.081C49.6316 59.081 51.2695 60.7189 51.2695 62.743V67.0795C55.523 68.5961 58.5938 72.623 58.5938 77.3909C58.5938 79.415 56.9558 81.0529 54.9316 81.0529C52.9075 81.0529 51.2695 79.415 51.2695 77.3909C51.2695 75.3705 49.6279 73.729 47.6074 73.729C45.5869 73.729 43.9453 75.3705 43.9453 77.3909C43.9453 79.4114 45.5869 81.0529 47.6074 81.0529Z" fill="#A6C8E8"/>
</svg>
