<svg width="125" height="125" viewBox="0 0 125 125" fill="none" xmlns="http://www.w3.org/2000/svg">
<g clip-path="url(#clip0)">
<path d="M72.4617 76.686C93.4365 76.686 110.501 59.4853 110.501 38.3431C110.501 17.2009 93.4365 0 72.4617 0C51.4869 0 34.4226 17.2007 34.4226 38.3429C34.4226 59.4851 51.4869 76.686 72.4617 76.686ZM60.2385 50.3079C61.345 48.6166 63.6135 48.1417 65.3048 49.2487C67.7697 50.8608 68.6993 51.0094 71.9515 50.9867C75.1259 50.9657 76.9678 48.5997 77.3358 46.4101C77.5149 45.3451 77.5834 42.7443 74.3602 41.6049C70.5795 40.2682 66.7103 38.7406 64.0185 36.6293C61.3267 34.518 60.0941 30.8732 60.8019 27.1179C61.5693 23.0468 64.4091 19.8061 68.2135 18.6603C68.2479 18.65 68.2816 18.6417 68.316 18.6315V17.2441C68.316 15.2229 69.9547 13.5842 71.9759 13.5842C73.9972 13.5842 75.6359 15.2229 75.6359 17.2441V18.4009C78.1217 18.9943 79.8577 20.1316 80.5626 20.6583C82.1815 21.8688 82.5129 24.1621 81.3026 25.7813C80.0924 27.4004 77.7991 27.7318 76.18 26.5211C75.4299 25.9604 73.3572 24.755 70.3246 25.6688C68.5529 26.2027 68.0935 27.9506 67.9949 28.4735C67.8014 29.501 68.0186 30.464 68.5358 30.8696C70.4017 32.333 73.7605 33.6289 76.7997 34.7032C82.404 36.6842 85.5203 41.8764 84.5544 47.6235C84.0803 50.4433 82.6617 53.0595 80.5597 54.9907C79.1279 56.3063 77.4614 57.2442 75.6359 57.7798V59.4416C75.6359 61.4629 73.9972 63.1016 71.9759 63.1016C69.9547 63.1016 68.316 61.4629 68.316 59.4416V58.1448C65.9495 57.8579 63.9629 57.1178 61.2975 55.3742C59.6063 54.2677 59.132 51.9993 60.2385 50.3079Z" fill="#A6C8E8"/>
<path d="M13.8724 88.9834H5.52724C3.50598 88.9834 1.86731 90.6221 1.86731 92.6433V121.335C1.86731 123.356 3.50598 124.995 5.52724 124.995H13.8726V88.9834H13.8724Z" fill="#A6C8E8"/>
<path d="M122.059 88.728C115.2 81.868 104.038 81.8678 97.1783 88.728L86.2146 99.6914L81.7209 104.185C79.9049 106.001 77.4415 107.021 74.8732 107.021H53.0224C51.049 107.021 49.3508 105.505 49.2578 103.534C49.1588 101.429 50.8357 99.6914 52.9187 99.6914H75.1286C79.5942 99.6914 83.4674 96.5121 84.235 92.1131C84.4114 91.103 84.5034 90.0643 84.5034 89.0044C84.5037 86.9795 82.863 85.3364 80.8384 85.3364H68.6686C64.6915 85.3364 60.8722 83.5323 56.8285 81.6218C52.5871 79.6184 48.2016 77.5466 43.0735 77.2055C38.5884 76.9066 34.093 77.3978 29.7116 78.6629C25.0203 80.0176 21.648 84.1855 21.2391 88.9976C21.2235 88.9964 21.2076 88.9961 21.1918 88.9951V124.982L84.2467 125C88.5821 125 92.6582 123.311 95.7243 120.245L122.059 93.9109C123.491 92.4801 123.491 90.1592 122.059 88.728Z" fill="#A6C8E8"/>
</g>
<defs>
<clipPath id="clip0">
<rect width="125" height="125" fill="white"/>
</clipPath>
</defs>
</svg>
