<svg width="893" height="260" viewBox="0 0 893 260" fill="none" xmlns="http://www.w3.org/2000/svg">
<path d="M0 260C76.2222 260 76.2222 259.633 0 260C0 260 152.445 181.616 228.667 175.125C304.889 168.144 381.114 155.897 457.336 135.933C533.558 116.705 609.781 89.7605 686.003 57.5497C762.225 24.849 838.447 -14.3428 914.669 5.25312C990.891 24.849 1067.11 103.233 1105.22 142.425L1143.34 181.616V260H1105.22C1067.11 260 990.891 260 914.669 260C838.447 260 762.225 260 686.003 260C609.781 260 533.558 260 457.336 260C381.114 260 304.889 260 228.667 260C152.445 260 76.2222 260 0 260C76.2222 259.633 76.2222 260 0 260C76.3325 260 38.1111 260 0 260Z" fill="#9897D0"/>
</svg>
