<svg width="74" height="75" viewBox="0 0 74 75" fill="none" xmlns="http://www.w3.org/2000/svg">
<g clip-path="url(#clip0)">
<path d="M16.6951 61.583C26.1359 61.583 33.5903 53.8192 33.5903 44.2435C33.5903 34.6678 25.8366 26.9039 16.3957 26.9039C16.3013 26.9039 16.1588 26.9169 16.0644 26.9185C19.7972 23.9036 24.4856 22.0868 29.6174 22.0868C31.9784 22.0868 33.8784 20.1451 33.8784 17.752C33.8784 15.3588 32.3594 13.4171 29.9984 13.4171C13.2408 13.4187 -9.9995e-05 27.2465 -0.000101481 44.2435C-0.000101481 44.2467 -0.000101482 44.25 -0.000101482 44.2548C-0.000102319 53.8257 7.25741 61.583 16.6951 61.583Z" fill="white"/>
<path d="M56.7362 61.583C66.1771 61.583 73.6443 53.8192 73.6443 44.2435C73.6443 34.6678 65.897 26.9039 56.4545 26.9039C56.3601 26.9039 56.2208 26.9169 56.1264 26.9185C59.8592 23.9036 64.5492 22.0868 69.681 22.0868C72.042 22.0868 73.9436 20.1451 73.9436 17.752C73.9436 15.3588 72.4005 13.4171 70.0395 13.4171C53.282 13.4187 40.0171 27.2465 40.0171 44.2435C40.0171 44.2467 40.0171 44.25 40.0171 44.2548C40.0171 53.8257 47.2986 61.583 56.7362 61.583Z" fill="white"/>
</g>
<defs>
<clipPath id="clip0">
<rect width="73.9437" height="75" fill="white" transform="translate(73.9436 75) rotate(-180)"/>
</clipPath>
</defs>
</svg>
