<svg width="125" height="125" viewBox="0 0 125 125" fill="none" xmlns="http://www.w3.org/2000/svg">
<path d="M32.959 36.6211H67.627C69.6494 36.6211 71.2891 34.9814 71.2891 32.959C71.2891 30.9365 69.6494 29.2969 67.627 29.2969H32.959C30.9365 29.2969 29.2969 30.9365 29.2969 32.959C29.2969 34.9814 30.9365 36.6211 32.959 36.6211Z" fill="#A6C8E8"/>
<path d="M119.106 90.6045L103.744 75.2422C104.707 72.55 105.41 67.2749 105.41 64.2559C105.41 57.2874 100.028 48.731 95.5 44.1055L95.1191 25.1934C95.1191 17.7893 92.0623 14 84.6582 14H68.7891V6.39453C68.7891 3.97144 66.8176 2 64.3945 2H31.1914C28.7683 2 26.7969 3.97144 26.7969 6.39453V14H10.9277C3.52368 14 0 17.7893 0 25.1934V113.572C0 120.976 3.52368 124.605 10.9277 124.605H84.6582C92.0623 124.605 95.1191 120.976 95.1191 113.572V92.5L103.744 101.175C105.82 103.25 108.578 105.027 111.513 105.027C114.448 105.027 115.925 105.075 118 103C120.075 100.925 120.999 98.9275 121 95.9939C121.001 93.0593 121.182 92.6797 119.106 90.6045ZM83.4375 19.0898H84.6582C88.0237 19.0898 90.7617 21.8279 90.7617 25.1934V41.0979C88.4841 40.0129 86.0225 39.2551 83.4375 38.8838V19.0898ZM31.6797 6.39453H64.3945V19.0898H31.6797V6.39453ZM19.4727 19.0898H26.7969V20.3105C26.7969 22.333 28.4365 23.9727 30.459 23.9727H65.127C67.1494 23.9727 68.7891 22.333 68.7891 20.3105V19.0898H78.5V38.8838C72.9902 39.6753 65.6548 43.3855 61.8545 47.1055H30.459C28.4365 47.1055 26.7969 47.585 26.7969 49.6074C26.7969 51.6299 28.4775 51.6055 30.5 51.6055H58C56.915 53.8831 54.8157 59.5205 54.4443 62.1055H30.5C28.4775 62.1055 26.7969 62.2334 26.7969 64.2559C26.7969 66.2783 28.4365 66.6055 30.459 66.6055H54.4033C54.7747 69.1904 56.915 74.3279 58 76.6055H45.1074C43.085 76.6055 41.4453 76.8818 41.4453 78.9043C41.4453 80.9268 43.085 81.1055 45.1074 81.1055H61.8545C65.6545 84.8254 72.9902 88.8362 78.5 89.6279V106.636L35.3418 107.105V89.6279C35.3418 87.6055 37.3643 88.4021 35.3418 88.4021H19.4727V19.0898ZM31.6797 92.8203V101.175L24.6516 92.8203H31.6797ZM19.4727 97.9993L26.5007 107.105H19.4727V97.9993ZM90.7617 113.572C90.7617 116.938 88.0237 119.676 84.6582 119.676H10.9277C7.56226 119.676 4.82422 116.938 4.82422 113.572V25.1934C4.82422 21.8279 7.56226 19.0898 10.9277 19.0898H13.5V108.689C13.5 110.712 13.7881 112.352 15.8105 112.352H79.7754C81.7979 112.352 83.4375 110.712 83.4375 108.689V89.6279C85.146 89.3826 86.8005 88.968 88.3838 88.4021L90.7617 90.78V113.572ZM79.7754 83.6055C69.679 83.6055 60.5508 74.3523 60.5508 64.2559C60.5508 54.1594 69.679 44.9062 79.7754 44.9062C89.8718 44.9062 99 54.1594 99 64.2559C99 74.3523 89.8718 83.6055 79.7754 83.6055ZM114.102 98.5835C113.411 99.2751 112.491 99.656 111.513 99.656C110.535 99.656 109.615 99.2751 108.924 98.5835L95.1191 84.7791C97.0818 83.3081 98.8271 81.5627 100.298 79.6001L114.104 93.4065C114.796 94.0979 115.177 95.0166 115.176 95.9939C115.176 96.9719 114.794 97.8914 114.102 98.5835Z" fill="#A6C8E8"/>
</svg>
