<svg width="125" height="124" viewBox="0 0 125 124" fill="none" xmlns="http://www.w3.org/2000/svg">
<path d="M98.1237 70.6699L102.906 65.0422C104.357 63.3353 105.156 61.1805 105.156 58.9748V41.9482C105.156 40.0988 104.711 38.2422 103.869 36.5798C102.592 34.0578 100.452 32.0754 97.894 30.8982V24.0594C97.894 19.4242 93.9778 15.6533 89.164 15.6533C86.3894 15.6533 83.9149 16.9078 82.3147 18.8569C80.7145 16.9078 78.24 15.6533 75.4651 15.6533C72.6903 15.6533 70.2158 16.9078 68.6156 18.8569C67.0154 16.9078 64.5409 15.6533 61.766 15.6533C58.9914 15.6533 56.5169 16.9078 54.9168 18.8569C53.3166 16.9078 50.8421 15.6533 48.0672 15.6533C43.2534 15.6533 39.3372 19.4242 39.3372 24.0594V37.2628C39.3372 38.7584 39.7469 40.1628 40.4607 41.3806V57.8181C40.4607 58.8184 41.3027 59.6288 42.3412 59.6288C43.3797 59.6288 44.2217 58.8184 44.2217 57.8181V44.8067C45.3826 45.3577 46.6877 45.6684 48.067 45.6684C50.8416 45.6684 53.3163 44.4139 54.9165 42.4649C56.5167 44.4139 58.9912 45.6684 61.766 45.6684C64.5407 45.6684 67.0152 44.4139 68.6153 42.4649C70.2155 44.4139 72.69 45.6684 75.4649 45.6684C76.8068 45.6684 78.1114 45.3741 79.2991 44.8135C80.4204 45.3591 81.6858 45.6684 83.0258 45.6684H85.0474L84.6548 50.4424H82.1008C74.1242 50.4424 67.4938 56.4475 67.0056 64.1136L66.7386 68.3073C66.6749 69.3054 67.4637 70.1641 68.5005 70.2254C68.5396 70.2276 68.5787 70.2288 68.6173 70.2288C69.6032 70.2288 70.4314 69.4893 70.4926 68.5289L70.7596 64.3353C71.1262 58.5757 76.108 54.0639 82.1008 54.0639H86.3921C87.3732 54.0639 88.1891 53.3377 88.2669 52.3961L88.8202 45.6684H89.164C90.2025 45.6684 91.0445 44.8579 91.0445 43.8577C91.0445 42.8574 90.2025 42.0469 89.164 42.0469H83.026C80.5267 42.0469 78.4935 40.0892 78.4935 37.6826C78.4935 35.276 80.5267 33.3183 83.026 33.3183H92.4325C95.8353 33.3183 98.9975 35.2215 100.489 38.1664C101.082 39.3376 101.395 40.6452 101.395 41.948V58.9746C101.395 60.3466 100.898 61.6866 99.9959 62.7484L95.2134 68.3761C94.5555 69.1501 94.6741 70.2911 95.478 70.9244C95.8275 71.1999 96.2487 71.3336 96.6677 71.3336C97.212 71.3339 97.7521 71.1072 98.1237 70.6699ZM48.067 42.0472C45.3269 42.0472 43.0979 39.9009 43.0979 37.2628V24.0594C43.0979 21.4211 45.3269 19.2748 48.067 19.2748C50.807 19.2748 53.036 21.4213 53.036 24.0594V37.2628C53.036 39.9011 50.807 42.0472 48.067 42.0472ZM61.766 42.0472C59.026 42.0472 56.797 39.9009 56.797 37.2628V24.0594C56.797 21.4211 59.026 19.2748 61.766 19.2748C64.5058 19.2748 66.7348 21.4213 66.7348 24.0594V37.2628C66.7348 39.9011 64.5058 42.0472 61.766 42.0472ZM74.7322 37.6831C74.7322 39.277 75.2217 40.762 76.0606 42.01C75.8638 42.0327 75.6655 42.0472 75.4649 42.0472C72.7249 42.0472 70.4958 39.9009 70.4958 37.2628V24.0594C70.4958 21.4211 72.7249 19.2748 75.4649 19.2748C78.2049 19.2748 80.4339 21.4213 80.4339 24.0594V30.0986C77.1268 31.1493 74.7322 34.1512 74.7322 37.6831ZM84.1949 29.6971V24.0594C84.1949 21.4211 86.424 19.2748 89.164 19.2748C91.9038 19.2748 94.1328 21.4213 94.1328 24.0594V29.8101C93.5729 29.7362 93.0052 29.6968 92.4323 29.6968H84.1949V29.6971Z" fill="#A6C8E8"/>
<path d="M92.7756 74.1036C91.972 73.4705 90.7873 73.5845 90.1294 74.3585L86.932 78.1212C86.2585 78.9131 85.8877 79.9131 85.8877 80.9368V122.06C85.8877 123.06 86.7297 123.87 87.7682 123.87C88.8067 123.87 89.6487 123.06 89.6487 122.06V80.9365C89.6487 80.747 89.7174 80.5616 89.8423 80.4146L93.0401 76.6514C93.6978 75.8776 93.5792 74.7368 92.7756 74.1036Z" fill="#A6C8E8"/>
<path d="M48.1587 78.3197C45.6564 76.0068 44.2212 72.7643 44.2212 69.4244V65.5412C44.2212 64.541 43.3793 63.7305 42.3407 63.7305C41.3022 63.7305 40.4602 64.541 40.4602 65.5412V69.4244C40.4602 73.7453 42.3169 77.9399 45.5541 80.9322L46.8865 82.1637C47.2285 82.48 47.4246 82.9233 47.4246 83.3796V121.86C47.4246 122.86 48.2666 123.671 49.3051 123.671C50.3436 123.671 51.1856 122.86 51.1856 121.86V83.3796C51.1856 81.9421 50.568 80.5469 49.4909 79.5512L48.1587 78.3197Z" fill="#A6C8E8"/>
<path d="M124.498 86.0027L112.557 71.0213C112.096 70.4428 111.397 70.1108 110.64 70.1108C109.883 70.1108 109.184 70.4426 108.723 71.021L96.7824 86.003C96.2183 86.7111 96.1227 87.6479 96.5324 88.4482C96.9421 89.2485 97.7726 89.7456 98.6993 89.7456H102.246V121.897C102.246 122.897 103.088 123.708 104.127 123.708C105.165 123.708 106.007 122.897 106.007 121.897V87.9349C106.007 86.9347 105.165 86.1242 104.127 86.1242H101.427L110.64 74.5645L119.853 86.1242H117.154C116.115 86.1242 115.273 86.9347 115.273 87.9349V121.875C115.273 122.875 116.115 123.685 117.154 123.685C118.192 123.685 119.034 122.875 119.034 121.875V89.7456H122.581C123.508 89.7456 124.338 89.2483 124.748 88.4482C125.158 87.6481 125.062 86.7109 124.498 86.0027Z" fill="#A6C8E8"/>
<path d="M16.2762 71.0213C15.8153 70.4428 15.1165 70.1108 14.3593 70.1108C13.6021 70.1108 12.9036 70.4426 12.4427 71.021L0.501759 86.003C-0.0623926 86.7111 -0.158173 87.6479 0.251777 88.4482C0.661727 89.2485 1.49216 89.7456 2.41887 89.7456H5.96575V104.532C5.96575 105.532 6.80771 106.343 7.84625 106.343C8.88479 106.343 9.72676 105.532 9.72676 104.532V87.9349C9.72676 86.9347 8.88479 86.1242 7.84625 86.1242H5.14635L14.3596 74.5645L23.5728 86.1242H20.8729C19.8343 86.1242 18.9924 86.9347 18.9924 87.9349V121.875C18.9924 122.875 19.8343 123.685 20.8729 123.685C21.9114 123.685 22.7534 122.875 22.7534 121.875V89.7456H26.3C27.2267 89.7456 28.0572 89.2483 28.4671 88.448C28.8771 87.6479 28.781 86.7106 28.2166 86.0027L16.2762 71.0213Z" fill="#A6C8E8"/>
<path d="M7.84633 110.443C6.80779 110.443 5.96582 111.254 5.96582 112.254V121.897C5.96582 122.897 6.80779 123.707 7.84633 123.707C8.88487 123.707 9.72684 122.897 9.72684 121.897V112.254C9.72684 111.254 8.88487 110.443 7.84633 110.443Z" fill="#A6C8E8"/>
<path d="M23.6083 0.910436C23.1475 0.331726 22.4487 0 21.6915 0C20.9343 0 20.2357 0.331726 19.7749 0.910194L7.83391 15.8919C7.26976 16.6001 7.17398 17.5368 7.58393 18.3372C7.99388 19.1375 8.82431 19.6346 9.75102 19.6346H13.2977V51.7862C13.2977 52.7864 14.1396 53.5969 15.1782 53.5969C16.2167 53.5969 17.0587 52.7864 17.0587 51.7862V17.8239C17.0587 16.8236 16.2167 16.0131 15.1782 16.0131H12.4785L21.6917 4.45343L30.905 16.0131H28.2053C27.1668 16.0131 26.3248 16.8236 26.3248 17.8239V51.7637C26.3248 52.764 27.1668 53.5745 28.2053 53.5745C29.2438 53.5745 30.0858 52.764 30.0858 51.7637V19.6346H33.6322C34.5589 19.6346 35.3893 19.1373 35.7993 18.3369C36.2092 17.5368 36.1132 16.5996 35.5488 15.8917L23.6083 0.910436Z" fill="#A6C8E8"/>
</svg>
