<svg width="125" height="125" viewBox="0 0 125 125" fill="none" xmlns="http://www.w3.org/2000/svg">
<g clip-path="url(#clip0)">
<path d="M12.207 70.0923C10.8595 70.0923 9.76562 71.1862 9.76562 72.5337C9.76562 73.8813 10.8595 74.9751 12.207 74.9751C13.5546 74.9751 14.6484 73.8813 14.6484 72.5337C14.6484 71.1862 13.5546 70.0923 12.207 70.0923Z" fill="#A6C8E8"/>
<path d="M112.211 78.5581L89.1954 86.4707C89.2975 85.9043 89.3547 85.3263 89.3547 84.7398C89.3547 79.3554 84.9745 74.9742 79.589 74.9742H63.779C63.3594 74.9742 62.9455 74.8664 62.5802 74.6604L49.6818 67.4058C47.1316 65.9686 44.2334 65.2085 41.3009 65.2085H23.9935C22.9865 62.3675 20.2723 60.3267 17.0899 60.3267H2.44141C1.09291 60.3267 0 61.4196 0 62.7681V106.713C0 108.061 1.09291 109.154 2.44141 109.154H17.0899C20.1998 109.154 22.8663 107.2 23.9249 104.455C26.6886 104.798 29.8863 105.616 31.8957 106.821L44.6635 114.482C49.5006 117.385 55.0386 118.92 60.6805 118.92C65.1513 118.92 69.4829 117.981 73.5561 116.131L119.124 96.0666C124.171 94.0191 126.662 87.9642 123.778 82.6274C121.656 78.7002 116.686 76.9531 112.211 78.5581ZM19.5313 101.841C19.5256 103.182 18.4317 104.271 17.0899 104.271H4.88282V65.2095H17.0899C18.4355 65.2095 19.5313 66.3043 19.5313 67.6509V101.841ZM117.269 91.551C117.243 91.5605 117.217 91.572 117.192 91.5824C117.192 91.5824 71.5562 111.676 71.5476 111.68C68.1096 113.244 64.4532 114.037 60.6805 114.037C55.9236 114.037 51.2544 112.744 47.1765 110.295L34.4077 102.635C31.6744 100.995 27.7606 99.9958 24.4141 99.5952V70.0923H41.3009C43.3951 70.0923 45.4646 70.634 47.2871 71.6611L60.1856 78.9157C61.2785 79.5318 62.5221 79.858 63.779 79.858H79.589C82.2813 79.858 84.4719 82.0476 84.4719 84.7408C84.4719 87.4235 82.2803 89.6236 79.589 89.6236H54.7706C53.4221 89.6236 52.3292 90.7165 52.3292 92.065C52.3292 93.4126 53.4221 94.5055 54.7706 94.5055H79.589C81.1903 94.5055 82.7667 94.1078 84.1657 93.362C84.1657 93.362 113.839 83.1615 113.851 83.1577C116.039 82.368 118.512 83.1539 119.482 84.9487C120.937 87.639 119.734 90.5639 117.269 91.551Z" fill="#A6C8E8"/>
<path d="M71.1051 65.3211C71.5648 65.7188 72.1341 65.9171 72.7044 65.9171C73.2747 65.9171 73.845 65.7188 74.3038 65.3211C94.2232 48.0576 106.545 39.321 106.545 25.7445C106.545 15.0042 98.941 6.10352 88.2589 6.10352C81.2437 6.10352 75.8716 10.1471 72.4117 16.2153C68.9594 10.1605 63.593 6.10352 56.5673 6.10352C48.3895 6.10352 41.5526 11.4031 39.1493 19.6038C38.7698 20.8979 39.5117 22.254 40.8059 22.6336C42.1 23.0131 43.4561 22.2712 43.8348 20.9771C45.6134 14.9079 50.6106 10.9863 56.5673 10.9863C63.532 10.9863 68.4177 17.1709 70.0589 22.9292C70.3517 23.9869 71.3149 24.7193 72.4117 24.7193C73.5093 24.7193 74.4716 23.9869 74.7644 22.9292C74.7978 22.81 78.189 10.9863 88.2589 10.9863C95.8997 10.9863 101.662 17.3302 101.662 25.7445C101.662 36.6049 91.0455 44.4346 72.7025 60.2504C61.5264 50.6526 52.6486 43.8968 47.6027 37.2878C46.7845 36.2158 45.2529 36.0099 44.1809 36.8281C43.109 37.6464 42.904 39.178 43.7213 40.2509C49.409 47.7 59.0106 54.8373 71.1051 65.3211Z" fill="#A6C8E8"/>
<path d="M41.2598 27.6118C39.9122 27.6118 38.8184 28.7057 38.8184 30.0532C38.8184 31.4008 39.9122 32.4946 41.2598 32.4946C42.6073 32.4946 43.7012 31.4008 43.7012 30.0532C43.7012 28.7057 42.6073 27.6118 41.2598 27.6118Z" fill="#A6C8E8"/>
</g>
<defs>
<clipPath id="clip0">
<rect width="125" height="125" fill="white"/>
</clipPath>
</defs>
</svg>
